<svg width="98" height="18" viewBox="0 0 98 18" fill="none" xmlns="http://www.w3.org/2000/svg">
<path d="M8.45516 1.1812C8.66961 0.716277 9.33039 0.716276 9.54483 1.1812L11.3986 5.20007C11.486 5.38956 11.6655 5.52002 11.8728 5.54459L16.2678 6.06569C16.7762 6.12597 16.9804 6.7544 16.6045 7.10203L13.3551 10.1069C13.2019 10.2486 13.1334 10.4597 13.174 10.6644L14.0366 15.0053C14.1363 15.5075 13.6018 15.8959 13.155 15.6458L9.29307 13.484C9.11098 13.3821 8.88902 13.3821 8.70693 13.484L4.84501 15.6458C4.39824 15.8959 3.86366 15.5075 3.96344 15.0053L4.82598 10.6644C4.86665 10.4597 4.79806 10.2486 4.64486 10.1069L1.39552 7.10203C1.01962 6.75441 1.22381 6.12597 1.73224 6.06569L6.12725 5.54459C6.33447 5.52002 6.51404 5.38956 6.60144 5.20007L8.45516 1.1812Z" fill="#F8B208"/>
<path d="M28.4552 1.1812C28.6696 0.716277 29.3304 0.716276 29.5448 1.1812L31.3986 5.20007C31.486 5.38956 31.6655 5.52002 31.8728 5.54459L36.2678 6.06569C36.7762 6.12597 36.9804 6.7544 36.6045 7.10203L33.3551 10.1069C33.2019 10.2486 33.1334 10.4597 33.174 10.6644L34.0366 15.0053C34.1363 15.5075 33.6018 15.8959 33.155 15.6458L29.2931 13.484C29.111 13.3821 28.889 13.3821 28.7069 13.484L24.845 15.6458C24.3982 15.8959 23.8637 15.5075 23.9634 15.0053L24.826 10.6644C24.8666 10.4597 24.7981 10.2486 24.6449 10.1069L21.3955 7.10203C21.0196 6.75441 21.2238 6.12597 21.7322 6.06569L26.1272 5.54459C26.3345 5.52002 26.514 5.38956 26.6014 5.20007L28.4552 1.1812Z" fill="#F8B208"/>
<path d="M48.4552 1.1812C48.6696 0.716277 49.3304 0.716276 49.5448 1.1812L51.3986 5.20007C51.486 5.38956 51.6655 5.52002 51.8728 5.54459L56.2678 6.06569C56.7762 6.12597 56.9804 6.7544 56.6045 7.10203L53.3551 10.1069C53.2019 10.2486 53.1334 10.4597 53.174 10.6644L54.0366 15.0053C54.1363 15.5075 53.6018 15.8959 53.155 15.6458L49.2931 13.484C49.111 13.3821 48.889 13.3821 48.7069 13.484L44.845 15.6458C44.3982 15.8959 43.8637 15.5075 43.9634 15.0053L44.826 10.6644C44.8666 10.4597 44.7981 10.2486 44.6449 10.1069L41.3955 7.10203C41.0196 6.75441 41.2238 6.12597 41.7322 6.06569L46.1272 5.54459C46.3345 5.52002 46.514 5.38956 46.6014 5.20007L48.4552 1.1812Z" fill="#F8B208"/>
<path d="M68.4552 1.1812C68.6696 0.716277 69.3304 0.716276 69.5448 1.1812L71.3986 5.20007C71.486 5.38956 71.6655 5.52002 71.8728 5.54459L76.2678 6.06569C76.7762 6.12597 76.9804 6.7544 76.6045 7.10203L73.3551 10.1069C73.2019 10.2486 73.1334 10.4597 73.174 10.6644L74.0366 15.0053C74.1363 15.5075 73.6018 15.8959 73.155 15.6458L69.2931 13.484C69.111 13.3821 68.889 13.3821 68.7069 13.484L64.845 15.6458C64.3982 15.8959 63.8637 15.5075 63.9634 15.0053L64.826 10.6644C64.8666 10.4597 64.7981 10.2486 64.6449 10.1069L61.3955 7.10203C61.0196 6.75441 61.2238 6.12597 61.7322 6.06569L66.1272 5.54459C66.3345 5.52002 66.514 5.38956 66.6014 5.20007L68.4552 1.1812Z" fill="#F8B208"/>
<path d="M88.4552 1.1812C88.6696 0.716277 89.3304 0.716276 89.5448 1.1812L91.3986 5.20007C91.486 5.38956 91.6655 5.52002 91.8728 5.54459L96.2678 6.06569C96.7762 6.12597 96.9804 6.7544 96.6045 7.10203L93.3551 10.1069C93.2019 10.2486 93.1334 10.4597 93.174 10.6644L94.0366 15.0053C94.1363 15.5075 93.6018 15.8959 93.155 15.6458L89.2931 13.484C89.111 13.3821 88.889 13.3821 88.7069 13.484L84.845 15.6458C84.3982 15.8959 83.8637 15.5075 83.9634 15.0053L84.826 10.6644C84.8666 10.4597 84.7981 10.2486 84.6449 10.1069L81.3955 7.10203C81.0196 6.75441 81.2238 6.12597 81.7322 6.06569L86.1272 5.54459C86.3345 5.52002 86.514 5.38956 86.6014 5.20007L88.4552 1.1812Z" fill="#F8B208"/>
</svg>
