<svg width="139" height="170" viewBox="0 0 139 170" fill="none" xmlns="http://www.w3.org/2000/svg">
<path d="M133.121 147.803L79.3383 154.176C77.122 154.44 74.9173 154.779 72.7243 155.194L23.1725 164.725L14.6145 94.4097C14.2894 91.7479 13.8812 89.0954 13.3897 86.4521L1.01617 20.7654L110.965 3.84364L133.121 147.803Z" fill="#100803" stroke="#100803" stroke-width="0.522809" stroke-linecap="round" stroke-linejoin="round"/>
<path d="M112.352 1.10206L2.40332 18.0239L24.5596 161.983L134.508 145.062L112.352 1.10206Z" fill="white" stroke="#100803" stroke-width="0.692727" stroke-linecap="round" stroke-linejoin="round"/>
<path d="M110.511 36.2596L15.1802 50.9316L30.9075 153.119L126.238 138.447L110.511 36.2596Z" fill="white" stroke="#100803" stroke-width="0.692727" stroke-linecap="round" stroke-linejoin="round"/>
<path d="M11.7978 28.955L52.5519 22.6826" stroke="#100803" stroke-width="0.692727" stroke-linecap="round" stroke-linejoin="round"/>
<path d="M12.5137 33.6056L44.4679 28.6876" stroke="#100803" stroke-width="0.692727" stroke-linecap="round" stroke-linejoin="round"/>
<path d="M13.2295 38.256L53.9836 31.9837" stroke="#100803" stroke-width="0.692727" stroke-linecap="round" stroke-linejoin="round"/>
<path d="M83.5554 17.911L106.725 14.345" stroke="#100803" stroke-width="0.692727" stroke-linecap="round" stroke-linejoin="round"/>
<path d="M99.7728 20.1758L107.441 18.9956" stroke="#100803" stroke-width="0.692727" stroke-linecap="round" stroke-linejoin="round"/>
<path d="M79.7575 56.3706L87.7667 55.1379" stroke="#100803" stroke-width="0.692727" stroke-miterlimit="10" stroke-linecap="round"/>
<path d="M24.2096 64.92L73.5568 57.3251" stroke="#100803" stroke-width="0.692727" stroke-miterlimit="10" stroke-linecap="round"/>
<path d="M68.6681 63.367L88.562 60.3052" stroke="#100803" stroke-width="0.692727" stroke-miterlimit="10" stroke-linecap="round"/>
<path d="M38.1812 68.0591L63.2423 64.2021" stroke="#100803" stroke-width="0.692727" stroke-miterlimit="10" stroke-linecap="round"/>
<path d="M25.0049 70.0873L33.5309 68.7751" stroke="#100803" stroke-width="0.692727" stroke-miterlimit="10" stroke-linecap="round"/>
<path d="M50.6031 71.4376L89.3574 65.473" stroke="#100803" stroke-width="0.692727" stroke-miterlimit="10" stroke-linecap="round"/>
<path d="M25.8003 75.2545L42.0771 72.7493" stroke="#100803" stroke-width="0.692727" stroke-miterlimit="10" stroke-linecap="round"/>
<path d="M102.923 64.2563C106.247 63.7447 108.527 60.6351 108.016 57.3109C107.504 53.9867 104.394 51.7066 101.07 52.2182C97.746 52.7298 95.466 55.8394 95.9776 59.1636C96.4892 62.4878 99.5988 64.7679 102.923 64.2563Z" stroke="#100803" stroke-width="0.692727" stroke-miterlimit="10"/>
<path d="M100.039 57.1064L102.107 59.7489L107.329 52.8446" stroke="url(#paint0_linear_3496_36065)" stroke-width="2.09123" stroke-miterlimit="10" stroke-linecap="round"/>
<path d="M83.2567 79.1066L91.2659 77.8739" stroke="#100803" stroke-width="0.692727" stroke-miterlimit="10" stroke-linecap="round"/>
<path d="M27.7089 87.6556L77.0561 80.0608" stroke="#100803" stroke-width="0.692727" stroke-miterlimit="10" stroke-linecap="round"/>
<path d="M72.1672 86.1029L92.0611 83.0411" stroke="#100803" stroke-width="0.692727" stroke-miterlimit="10" stroke-linecap="round"/>
<path d="M41.6805 90.7956L66.7417 86.9385" stroke="#100803" stroke-width="0.692727" stroke-miterlimit="10" stroke-linecap="round"/>
<path d="M28.5042 92.8229L37.0301 91.5107" stroke="#100803" stroke-width="0.692727" stroke-miterlimit="10" stroke-linecap="round"/>
<path d="M54.1021 94.173L92.8565 88.2084" stroke="#100803" stroke-width="0.692727" stroke-miterlimit="10" stroke-linecap="round"/>
<path d="M29.2994 97.9901L45.5762 95.485" stroke="#100803" stroke-width="0.692727" stroke-miterlimit="10" stroke-linecap="round"/>
<path d="M106.422 86.9923C109.747 86.4806 112.027 83.3711 111.515 80.0469C111.004 76.7226 107.894 74.4426 104.57 74.9542C101.246 75.4658 98.9655 78.5754 99.4771 81.8996C99.9887 85.2238 103.098 87.5039 106.422 86.9923Z" stroke="#100803" stroke-width="0.692727" stroke-miterlimit="10"/>
<path d="M103.538 79.843L105.606 82.4856L110.828 75.5812" stroke="url(#paint1_linear_3496_36065)" stroke-width="2.09123" stroke-miterlimit="10" stroke-linecap="round"/>
<path d="M86.7558 101.842L94.765 100.609" stroke="#100803" stroke-width="0.692727" stroke-miterlimit="10" stroke-linecap="round"/>
<path d="M31.2078 110.391L80.555 102.796" stroke="#100803" stroke-width="0.692727" stroke-miterlimit="10" stroke-linecap="round"/>
<path d="M75.6663 108.839L95.5602 105.777" stroke="#100803" stroke-width="0.692727" stroke-miterlimit="10" stroke-linecap="round"/>
<path d="M45.1796 113.531L70.2407 109.674" stroke="#100803" stroke-width="0.692727" stroke-miterlimit="10" stroke-linecap="round"/>
<path d="M32.003 115.558L40.529 114.246" stroke="#100803" stroke-width="0.692727" stroke-miterlimit="10" stroke-linecap="round"/>
<path d="M57.601 116.909L96.3554 110.944" stroke="#100803" stroke-width="0.692727" stroke-miterlimit="10" stroke-linecap="round"/>
<path d="M32.7983 120.726L49.0752 118.221" stroke="#100803" stroke-width="0.692727" stroke-miterlimit="10" stroke-linecap="round"/>
<path d="M109.921 109.728C113.246 109.217 115.526 106.107 115.014 102.783C114.502 99.4588 111.393 97.1787 108.069 97.6903C104.744 98.202 102.464 101.312 102.976 104.636C103.488 107.96 106.597 110.24 109.921 109.728Z" stroke="#100803" stroke-width="0.692727" stroke-miterlimit="10"/>
<path d="M107.037 102.579L109.105 105.221L114.327 98.3169" stroke="url(#paint2_linear_3496_36065)" stroke-width="2.09123" stroke-miterlimit="10" stroke-linecap="round"/>
<path d="M34.8524 143.968L65.1479 139.305" stroke="#100803" stroke-width="0.692727" stroke-linecap="round" stroke-linejoin="round"/>
<path d="M39.1796 139.81C39.1796 139.81 39.8591 143.229 43.415 136.397C46.9709 129.566 46.4363 130.114 45.7672 133.74C45.2154 136.263 44.3474 138.707 43.1839 141.014C43.1839 141.014 47.2648 131.647 47.633 134.04C48.0012 136.432 44.4745 147.406 45.3851 146.345C46.2957 145.285 48.9013 140.287 48.9013 140.287C48.9013 140.287 48.9122 143.348 49.8983 141.816C50.8843 140.283 51.8238 137.383 51.9046 138.905C51.9854 140.426 50.3133 142.519 51.9854 140.426C53.6575 138.333 54.8092 135.85 54.6134 137.567C54.4175 139.285 53.311 140.069 54.4175 139.285C55.5241 138.501 60.5332 126.23 58.6429 127.902C56.7526 129.573 54.659 141.85 56.3188 140.674C57.9786 139.498 59.3802 134.686 59.5763 136.957C59.7724 139.228 60.3718 139.135 60.8404 138.296" stroke="#100803" stroke-width="0.692727" stroke-linecap="round" stroke-linejoin="round"/>
<path d="M108.876 141.457L105.909 167.137L111.997 159.546L119.361 166.766L115.566 140.569L108.876 141.457Z" fill="white" stroke="#100803" stroke-width="0.692727" stroke-miterlimit="10"/>
<path d="M112.534 141.494L114.854 167.241L119.271 158.572L127.951 164.143L118.911 139.264L112.534 141.494Z" fill="white" stroke="#100803" stroke-width="0.692727" stroke-miterlimit="10"/>
<path d="M127.953 135.211C127.917 134.467 129.466 133.539 129.328 132.83C129.19 132.12 127.403 131.817 127.175 131.133C126.948 130.448 128.158 129.106 127.82 128.46C127.483 127.813 125.692 128.037 125.286 127.44C124.881 126.842 125.659 125.223 125.153 124.696C124.648 124.17 122.993 124.892 122.416 124.44C121.84 123.987 122.155 122.208 121.52 121.837C120.885 121.466 119.488 122.636 118.821 122.361C118.153 122.087 117.942 120.296 117.226 120.12C116.509 119.943 115.522 121.445 114.803 121.388C114.084 121.332 113.385 119.652 112.65 119.687C111.915 119.723 111.373 121.451 110.672 121.589C109.97 121.726 108.809 120.325 108.137 120.56C107.466 120.796 107.409 122.612 106.766 122.946C106.124 123.279 104.626 122.263 104.029 122.685C103.433 123.107 103.919 124.856 103.389 125.362C102.858 125.868 101.142 125.305 100.685 125.882C100.229 126.459 101.201 127.99 100.818 128.629C100.435 129.269 98.6431 129.202 98.3698 129.887C98.0965 130.571 99.4462 131.764 99.2741 132.485C99.102 133.205 97.355 133.642 97.2956 134.382C97.2363 135.122 98.8587 135.875 98.8947 136.619C98.9308 137.362 97.3813 138.286 97.5194 139C97.6575 139.714 99.4443 140.013 99.672 140.697C99.8998 141.382 98.6895 142.724 99.0231 143.37C99.3567 144.017 101.155 143.793 101.582 144.385C102.008 144.977 101.205 146.602 101.715 147.132C102.225 147.662 103.875 146.937 104.452 147.389C105.029 147.841 104.713 149.621 105.348 149.987C105.983 150.354 107.38 149.193 108.047 149.467C108.715 149.741 108.926 151.532 109.642 151.705C110.359 151.877 111.346 150.38 112.065 150.44C112.785 150.501 113.487 152.177 114.218 152.141C114.949 152.106 115.495 150.378 116.197 150.24C116.898 150.103 118.063 151.504 118.731 151.264C119.398 151.025 119.46 149.217 120.102 148.883C120.744 148.55 122.243 149.566 122.839 149.14C123.435 148.713 122.949 146.973 123.48 146.467C124.01 145.961 125.727 146.524 126.179 145.947C126.631 145.37 125.663 143.839 126.046 143.2C126.429 142.56 128.217 142.627 128.494 141.942C128.772 141.258 127.414 140.065 127.59 139.344C127.766 138.624 129.509 138.183 129.568 137.447C129.628 136.712 127.988 135.942 127.953 135.211Z" fill="#100803"/>
<path d="M113.938 147.476C120.329 147.167 125.258 141.735 124.949 135.344C124.639 128.954 119.208 124.024 112.817 124.334C106.426 124.644 101.497 130.075 101.806 136.466C102.116 142.856 107.548 147.786 113.938 147.476Z" fill="white" stroke="#100803" stroke-width="0.522809" stroke-linecap="round" stroke-linejoin="round"/>
<path d="M119.37 141.341C122.373 138.033 122.125 132.916 118.817 129.914C115.508 126.911 110.392 127.159 107.389 130.467C104.387 133.776 104.635 138.892 107.943 141.895C111.251 144.897 116.368 144.649 119.37 141.341Z" fill="white" stroke="#100803" stroke-width="0.692727" stroke-linecap="round" stroke-linejoin="round"/>
<path d="M113.697 142.238C117.206 142.068 119.913 139.085 119.743 135.576C119.573 132.067 116.59 129.36 113.081 129.53C109.572 129.7 106.865 132.683 107.036 136.192C107.206 139.701 110.188 142.408 113.697 142.238Z" fill="url(#paint3_linear_3496_36065)"/>
<path d="M111.324 134.791L109.291 134.89C109.111 134.898 108.972 135.052 108.981 135.232L109.17 139.14C109.179 139.32 109.332 139.459 109.512 139.45L111.545 139.352C111.725 139.343 111.864 139.19 111.855 139.01L111.666 135.102C111.657 134.921 111.504 134.782 111.324 134.791Z" fill="white"/>
<path d="M117.205 135.169C117.838 134.132 116.886 133.88 116.886 133.88L114.436 133.998L114.467 133.782C114.467 133.782 114.602 132.119 114.3 131.612C113.998 131.105 112.984 130.951 112.952 131.143C112.92 131.335 113.024 132.187 112.959 132.658C112.744 133.44 112.466 134.204 112.13 134.943C112.094 135.004 112.046 135.059 111.989 135.103L112.173 138.895C112.343 138.99 112.538 139.033 112.733 139.017L116.294 138.844C116.399 138.808 116.494 138.751 116.576 138.677C116.658 138.604 116.725 138.514 116.772 138.414C116.819 138.314 116.845 138.206 116.849 138.096C116.854 137.986 116.836 137.876 116.797 137.772C116.997 137.644 117.147 137.452 117.222 137.226C117.297 137.001 117.292 136.757 117.209 136.535C117.32 136.459 117.411 136.357 117.473 136.237C117.536 136.118 117.568 135.985 117.568 135.851C117.568 135.716 117.534 135.584 117.471 135.465C117.408 135.346 117.317 135.244 117.205 135.169Z" fill="white"/>
<defs>
<linearGradient id="paint0_linear_3496_36065" x1="105.831" y1="58.5461" x2="100.05" y2="53.61" gradientUnits="userSpaceOnUse">
<stop stop-color="#FFB806"/>
<stop offset="1" stop-color="#FFB800"/>
</linearGradient>
<linearGradient id="paint1_linear_3496_36065" x1="109.33" y1="81.2827" x2="103.549" y2="76.3466" gradientUnits="userSpaceOnUse">
<stop stop-color="#FFB806"/>
<stop offset="1" stop-color="#FFB800"/>
</linearGradient>
<linearGradient id="paint2_linear_3496_36065" x1="112.829" y1="104.018" x2="107.048" y2="99.0823" gradientUnits="userSpaceOnUse">
<stop stop-color="#FFB806"/>
<stop offset="1" stop-color="#FFB800"/>
</linearGradient>
<linearGradient id="paint3_linear_3496_36065" x1="116.189" y1="140.802" x2="105.23" y2="131.954" gradientUnits="userSpaceOnUse">
<stop stop-color="#FFB806"/>
<stop offset="1" stop-color="#FFB800"/>
</linearGradient>
</defs>
</svg>
