<svg width="97" height="156" viewBox="0 0 97 156" fill="none" xmlns="http://www.w3.org/2000/svg">
<path fill-rule="evenodd" clip-rule="evenodd" d="M8.40846 151.352C8.40846 149.03 6.52616 147.148 4.20423 147.148C1.8823 147.148 -2.85268e-07 149.03 -1.83773e-07 151.352C-8.22779e-08 153.674 1.8823 155.557 4.20423 155.557C6.52616 155.557 8.40846 153.674 8.40846 151.352ZM67.2675 151.352C67.2675 149.03 65.3852 147.148 63.0632 147.148C60.7413 147.148 58.859 149.03 58.859 151.352C58.859 153.674 60.7413 155.557 63.0632 155.557C65.3852 155.557 67.2675 153.674 67.2675 151.352ZM33.634 147.148C35.9559 147.148 37.8382 149.03 37.8382 151.352C37.8382 153.674 35.9559 155.557 33.634 155.557C31.312 155.557 29.4297 153.674 29.4297 151.352C29.4297 149.03 31.312 147.148 33.634 147.148ZM96.6972 151.352C96.6972 149.03 94.8149 147.148 92.493 147.148C90.171 147.148 88.2887 149.03 88.2887 151.352C88.2887 153.674 90.171 155.557 92.493 155.557C94.8149 155.557 96.6972 153.674 96.6972 151.352ZM4.20423 117.719C6.52616 117.719 8.40846 119.601 8.40846 121.923C8.40846 124.245 6.52616 126.127 4.20423 126.127C1.8823 126.127 -1.36869e-06 124.245 -1.47018e-06 121.923C-1.57168e-06 119.601 1.8823 117.719 4.20423 117.719ZM67.2675 121.923C67.2675 119.601 65.3852 117.719 63.0632 117.719C60.7413 117.719 58.859 119.601 58.859 121.923C58.859 124.245 60.7413 126.127 63.0632 126.127C65.3852 126.127 67.2675 124.245 67.2675 121.923ZM33.634 117.719C35.9559 117.719 37.8382 119.601 37.8382 121.923C37.8382 124.245 35.9559 126.127 33.634 126.127C31.312 126.127 29.4297 124.245 29.4297 121.923C29.4297 119.601 31.312 117.719 33.634 117.719ZM96.6972 121.923C96.6972 119.601 94.8149 117.719 92.493 117.719C90.171 117.719 88.2887 119.601 88.2887 121.923C88.2887 124.245 90.171 126.127 92.493 126.127C94.8149 126.127 96.6972 124.245 96.6972 121.923ZM4.20423 88.289C6.52616 88.289 8.40846 90.1712 8.40846 92.4932C8.40846 94.8151 6.52616 96.6974 4.20423 96.6974C1.8823 96.6974 -2.6551e-06 94.8151 -2.75659e-06 92.4932C-2.85809e-06 90.1712 1.8823 88.289 4.20423 88.289ZM8.40846 33.6339C8.40846 31.312 6.52616 29.4297 4.20422 29.4297C1.88229 29.4297 -5.43091e-06 31.312 -5.32941e-06 33.6339C-5.22792e-06 35.9559 1.88229 37.8382 4.20423 37.8382C6.52616 37.8382 8.40846 35.9559 8.40846 33.6339ZM63.0632 88.289C65.3852 88.289 67.2675 90.1712 67.2675 92.4932C67.2675 94.8151 65.3852 96.6974 63.0632 96.6974C60.7413 96.6974 58.859 94.8151 58.859 92.4932C58.859 90.1712 60.7413 88.289 63.0632 88.289ZM67.2675 33.6339C67.2675 31.312 65.3852 29.4297 63.0632 29.4297C60.7413 29.4297 58.859 31.312 58.859 33.6339C58.859 35.9559 60.7413 37.8382 63.0632 37.8382C65.3852 37.8382 67.2675 35.9559 67.2675 33.6339ZM33.634 88.289C35.9559 88.289 37.8382 90.1712 37.8382 92.4932C37.8382 94.8151 35.9559 96.6974 33.634 96.6974C31.312 96.6974 29.4297 94.8151 29.4297 92.4932C29.4297 90.1712 31.312 88.289 33.634 88.289ZM37.8382 33.6339C37.8382 31.312 35.9559 29.4297 33.634 29.4297C31.312 29.4297 29.4297 31.312 29.4297 33.6339C29.4297 35.9559 31.312 37.8382 33.634 37.8382C35.9559 37.8382 37.8382 35.9559 37.8382 33.6339ZM92.493 88.289C94.8149 88.289 96.6972 90.1712 96.6972 92.4932C96.6972 94.8151 94.8149 96.6974 92.493 96.6974C90.171 96.6974 88.2887 94.8151 88.2887 92.4932C88.2887 90.1712 90.171 88.289 92.493 88.289ZM96.6972 33.6339C96.6972 31.312 94.8149 29.4297 92.493 29.4297C90.171 29.4297 88.2887 31.312 88.2887 33.6339C88.2887 35.9559 90.171 37.8382 92.493 37.8382C94.8149 37.8382 96.6972 35.9559 96.6972 33.6339ZM4.20423 58.8593C6.52616 58.8593 8.40846 60.7416 8.40846 63.0636C8.40846 65.3855 6.52616 67.2678 4.20423 67.2678C1.88229 67.2678 -3.94151e-06 65.3855 -4.043e-06 63.0636C-4.1445e-06 60.7416 1.88229 58.8593 4.20423 58.8593ZM8.40845 4.20435C8.40845 1.8824 6.52616 0.000106526 4.20422 0.000106628C1.88229 0.000106729 -6.71731e-06 1.8824 -6.61582e-06 4.20435C-6.51432e-06 6.52628 1.88229 8.40857 4.20422 8.40857C6.52616 8.40857 8.40845 6.52628 8.40845 4.20435ZM63.0632 58.8593C65.3852 58.8593 67.2675 60.7416 67.2675 63.0636C67.2675 65.3855 65.3852 67.2678 63.0632 67.2678C60.7413 67.2678 58.859 65.3855 58.859 63.0636C58.859 60.7416 60.7413 58.8593 63.0632 58.8593ZM67.2674 4.20434C67.2674 1.8824 65.3852 0.000103953 63.0632 0.000104055C60.7413 0.000104156 58.859 1.8824 58.859 4.20434C58.859 6.52627 60.7413 8.40857 63.0632 8.40857C65.3852 8.40857 67.2674 6.52627 67.2674 4.20434ZM33.634 58.8593C35.9559 58.8593 37.8382 60.7416 37.8382 63.0636C37.8382 65.3855 35.9559 67.2678 33.634 67.2678C31.312 67.2678 29.4297 65.3855 29.4297 63.0636C29.4297 60.7416 31.312 58.8593 33.634 58.8593ZM37.8382 4.20434C37.8382 1.8824 35.9559 0.00010524 33.634 0.000105341C31.312 0.000105443 29.4297 1.8824 29.4297 4.20434C29.4297 6.52627 31.312 8.40857 33.634 8.40857C35.9559 8.40857 37.8382 6.52627 37.8382 4.20434ZM92.493 58.8593C94.8149 58.8593 96.6972 60.7416 96.6972 63.0636C96.6972 65.3855 94.8149 67.2678 92.493 67.2678C90.171 67.2678 88.2887 65.3855 88.2887 63.0636C88.2887 60.7416 90.171 58.8593 92.493 58.8593ZM96.6972 4.20434C96.6972 1.8824 94.8149 0.000102667 92.493 0.000102769C90.171 0.00010287 88.2887 1.8824 88.2887 4.20434C88.2887 6.52627 90.171 8.40857 92.493 8.40857C94.8149 8.40857 96.6972 6.52627 96.6972 4.20434Z" fill="url(#paint0_linear_3938_37621)"/>
<defs>
<linearGradient id="paint0_linear_3938_37621" x1="86.7168" y1="46.4951" x2="-21.5191" y2="122.031" gradientUnits="userSpaceOnUse">
<stop stop-color="#FFB806"/>
<stop offset="1" stop-color="#FFB800"/>
</linearGradient>
</defs>
</svg>
